<svg width="205" height="97" viewBox="0 0 205 97" fill="none" xmlns="http://www.w3.org/2000/svg">
<path d="M47.4894 61.6511V68.7325H22.7046V26.0598H29.786V61.6511H47.4894Z" fill="white"/>
<path d="M58.1094 26.2443H82.8958V33.3134H65.1908V43.8863H77.5832V51.1398H65.1908V61.8356H82.8958V68.7326H58.1094V26.2443Z" fill="white"/>
<path d="M117.127 51.1398L126.83 68.7326H118.692L109.449 52.7995H100.598V68.7326H93.5163V26.2443H108.677C111.014 26.2443 113.142 26.6131 115.062 27.3508C116.981 28.0474 118.63 29.0105 120.007 30.2399C121.384 31.4283 122.448 32.8216 123.2 34.4199C123.951 36.0181 124.326 37.6983 124.326 39.4604C124.326 41.3865 123.951 43.0462 123.2 44.4395C122.448 45.8329 121.614 46.9803 120.696 47.8819C119.819 48.7834 119.005 49.4596 118.254 49.9104C117.503 50.3202 117.127 50.5251 117.127 50.5251V51.1398ZM108.677 45.7181C112.393 45.7181 116.501 43.6393 116.501 39.4604C116.501 35.487 112.195 33.3134 108.677 33.3134H100.598V45.7181H108.677Z" fill="white"/>
<path d="M191.228 25.3591C193.44 25.3591 195.36 25.728 196.987 26.4656C198.615 27.2032 199.992 28.0024 201.119 28.8629C202.371 29.9284 203.456 31.1169 204.374 32.4282L198.74 36.4238C198.114 35.6042 197.446 34.887 196.737 34.2723C196.027 33.6986 195.276 33.2068 194.483 32.797C193.69 32.3463 192.814 32.1209 191.854 32.1209C189.976 32.1209 188.453 32.6536 187.284 33.7191C186.158 34.7846 185.594 36.096 185.594 37.6532C185.594 38.8826 186.074 39.9071 187.034 40.7267C187.994 41.5463 189.183 42.3045 190.602 43.0011C192.063 43.6978 193.628 44.4149 195.297 45.1526C196.966 45.8492 198.511 46.7098 199.929 47.7343C201.39 48.7588 202.6 50.0087 203.56 51.484C204.52 52.9593 205 54.8034 205 57.0164C205 58.6146 204.624 60.1718 203.873 61.6881C203.164 63.2044 202.141 64.5567 200.806 65.7451C199.512 66.8926 197.968 67.8146 196.173 68.5113C194.379 69.249 192.417 69.6178 190.289 69.6178C187.618 69.6178 185.323 69.167 183.403 68.2654C181.483 67.3639 179.898 66.3803 178.646 65.3148C177.185 64.0445 175.954 62.6102 174.952 61.0119L180.586 57.0164C181.296 58.1228 182.109 59.0859 183.028 59.9055C183.862 60.7251 184.822 61.4217 185.907 61.9955C186.992 62.5692 188.244 62.856 189.663 62.856C190.748 62.856 191.75 62.6921 192.668 62.3643C193.586 61.9955 194.379 61.5242 195.047 60.9505C195.714 60.3358 196.236 59.6391 196.612 58.8605C196.987 58.0818 197.175 57.2622 197.175 56.4017C197.175 55.1722 196.695 54.1477 195.735 53.3281C194.775 52.5085 193.565 51.7504 192.105 51.0537C190.686 50.3571 189.141 49.6604 187.472 48.9637C185.803 48.2261 184.238 47.345 182.777 46.3205C181.358 45.296 180.169 44.0461 179.209 42.5708C178.249 41.0955 177.769 39.2514 177.769 37.0385C177.769 35.5632 178.103 34.1289 178.771 32.7356C179.48 31.3422 180.44 30.1128 181.65 29.0474C182.902 27.9409 184.342 27.0598 185.97 26.4041C187.597 25.7075 189.35 25.3591 191.228 25.3591Z" fill="white"/>
<path d="M169.642 68.7326H161.587L159.109 62.3397L156.32 55.3075L151.364 41.8824H150.744L145.787 55.3075H150.668L153.517 62.3397H142.937L140.52 68.7326H132.465L150.744 22.7036H151.364L169.642 68.7326Z" fill="#6AC1C1"/>
<path d="M169.642 68.7326H161.587L159.109 62.3397L156.32 55.3075L151.364 41.8824H150.744L145.787 55.3075H150.668L153.517 62.3397H142.937L140.52 68.7326H132.465L150.744 22.7036H151.364L169.642 68.7326Z" fill="#4CCAD2"/>
<path d="M61.6511 19.163V5.00024H5V91.7472H61.6511V75.8141" stroke="#6AC1C1" stroke-width="8.74546"/>
<path d="M61.6511 19.163V5.00024H5V91.7472H61.6511V75.8141" stroke="#4CCAD2" stroke-width="8.74546"/>
</svg>
