<svg width="22" height="21" viewBox="0 0 22 21" fill="none" xmlns="http://www.w3.org/2000/svg">
<path d="M7.96229 6.96847L7.65889 7.49433L7.98545 8.00612C9.34192 10.132 11.1816 12.0813 14.0021 13.3166L14.6602 13.6048L15.1434 13.0731L15.7552 12.3997C16.3669 11.7265 17.3236 11.6721 17.892 12.1672C18.791 12.9502 19.4977 13.7782 20.035 14.8599C20.1704 15.1326 20.1753 15.4212 20.0745 15.6523C19.3869 17.2285 18.58 17.928 17.1852 19.1372C16.9661 19.3271 16.7325 19.5296 16.4826 19.7501C16.3867 19.8347 16.2506 19.858 16.1335 19.8114C12.3198 18.2944 9.51468 16.6797 7.18931 14.458C4.86132 12.2337 2.95706 9.34635 1.02912 5.19967C0.985026 5.10482 0.99793 5.02316 1.02236 4.97831L0.144165 4.5L1.02236 4.97831C2.05542 3.08157 2.9306 2.46932 4.7198 1.21762L4.7354 1.20671C5.20343 0.87928 5.90568 0.933625 6.41801 1.43671C7.42226 2.42283 8.10999 3.1825 8.7097 3.98141C9.03576 4.41578 9.06933 5.04971 8.74729 5.60789L7.96229 6.96847Z" stroke="white" stroke-width="2"/>
</svg>
